<?xml version="1.0" standalone="no"?>
<!DOCTYPE svg PUBLIC "-//W3C//DTD SVG 20010904//EN"
 "http://www.w3.org/TR/2001/REC-SVG-20010904/DTD/svg10.dtd">
<svg version="1.0" xmlns="http://www.w3.org/2000/svg"
 width="1200.000000pt" height="857.000000pt" viewBox="0 0 1200.000000 857.000000"
 preserveAspectRatio="xMidYMid meet">
<metadata>
Created by potrace 1.16, written by Peter Selinger 2001-2019
</metadata>
<g transform="translate(0.000000,857.000000) scale(0.100000,-0.100000)"
fill="#000000" stroke="none">
<path d="M3950 8564 c-601 -55 -1128 -206 -1635 -468 -691 -356 -1278 -902
-1691 -1573 -344 -557 -552 -1194 -614 -1873 -13 -148 -13 -582 0 -730 52
-572 191 -1063 445 -1565 222 -441 482 -794 841 -1145 593 -579 1327 -966
2139 -1129 322 -65 442 -76 855 -76 206 0 387 3 403 8 l27 7 0 646 0 647 -47
-7 c-27 -3 -142 -9 -258 -12 -396 -12 -716 33 -1072 152 -449 149 -837 389
-1173 724 -1171 1171 -1171 3059 0 4230 511 511 1166 812 1895 871 145 11 497
7 608 -7 l47 -7 0 646 c0 605 -1 645 -17 652 -19 8 -678 16 -753 9z"/>
<path d="M11146 8555 c-1973 -204 -3541 -1705 -3820 -3655 -314 -2192 1072
-4250 3219 -4780 379 -94 667 -124 1110 -117 171 2 318 8 328 12 16 7 17 47
17 651 l0 645 -92 -8 c-141 -12 -550 -9 -668 6 -325 38 -661 135 -950 273
-320 152 -581 337 -836 592 -378 380 -628 809 -770 1325 -19 69 -34 128 -34
133 0 4 563 8 1250 8 l1250 0 0 645 0 645 -1250 0 c-687 0 -1250 4 -1250 8 0
5 15 64 34 133 142 516 392 945 770 1325 515 516 1162 814 1901 875 136 11
492 7 598 -7 l47 -7 0 646 c0 605 -1 645 -17 652 -35 15 -690 15 -837 0z"/>
</g>
</svg>
